{"title":"A Good Day to Die Hard 2013 D CAMRip RUS","uid":8150932,"size":1469085696,"categoryP":"video","categoryS":"movies","magnet":"?xt=urn:btih:e39b837c003fa6e23aaf18fe4a02541ce19445c9&amp;dn=A+Good+Day+to+Die+Hard+2013+D+CAMRip+RUS&amp;tr=udp%3A%2F%2Ftracker.openbittorrent.com%3A80&amp;tr=udp%3A%2F%2Fopen.demonii.com%3A1337&amp;tr=udp%3A%2F%2Ftracker.coppersurfer.tk%3A6969&amp;tr=udp%3A%2F%2Fexodus.desync.com%3A6969","seeders":2,"leechers":0,"uploader":"xxxlavalxxx","files":1,"time":1361033316,"description":" &lt;a href=&quot;http://bayimg.com/AajkjaAEk&quot; rel=&quot;nofollow&quot; target=&quot;_NEW&quot;&gt;http://bayimg.com/AajkjaAEk&lt;/a&gt;\n\n &lt;a href=&quot;\nhttp://www.imdb.com/title/tt1606378/&quot; rel=&quot;nofollow&quot; target=&quot;_NEW&quot;&gt;\nhttp://www.imdb.com/title/tt1606378/&lt;/a&gt;\n\n\n[b]John McClane travels to Russia to help out his seemingly wayward son, Jack, only to discover that Jack is a CIA operative working to prevent a nuclear-weapons heist, causing the father and son to team up against underworld forces. \n\n\n\nDirector:\n John Moore\n\nWriters:\n Skip Woods, Roderick Thorp (certain original characters)\n\nStars:\n Bruce Willis, Jai Courtney, Sebastian Koch\n\nGenres:\n Action | Crime | Thriller \n\nCountry:\nUSA\n\nLanguage:\nEnglish [/b]\n\n\n\nFormat                                   : AVI\nFormat/Info                              : Audio Video Interleave\nFile size                                : 1.37 GiB\nDuration                                 : 1h 31mn\nOverall bit rate                         : 2 137 Kbps\nWriting application                      : VirtualDubMod 1.5.10.3 | www.virtualdub-fr.org || (build 2550/release)\nWriting library                          : VirtualDubMod build 2550/release\n\nVideo\nID                                       : 0\nFormat                                   : MPEG-4 Visual\nFormat profile                           : Advanced Simple@L5\nFormat settings, BVOP                    : 2\nFormat settings, QPel                    : No\nFormat settings, GMC                     : No warppoints\nFormat settings, Matrix                  : Default (MPEG)\nMuxing mode                              : Packed bitstream\nCodec ID                                 : XVID\nCodec ID/Hint                            : XviD\nDuration                                 : 1h 31mn\nBit rate                                 : 1 936 Kbps\nWidth                                    : 720 pixels\nHeight                                   : 304 pixels\nDisplay aspect ratio                     : 2.35:1\nFrame rate                               : 25.000 fps\nColor space                              : YUV\nChroma subsampling                       : 4:2:0\nBit depth                                : 8 bits\nScan type                                : Progressive\nCompression mode                         : Lossy\nBits/(Pixel*Frame)                       : 0.354\nStream size                              : 1.24 GiB (91%)\nWriting library                          : XviD 73\n\nAudio\nID                                       : 1\nFormat                                   : MPEG Audio\nFormat version                           : Version 1\nFormat profile                           : Layer 3\nCodec ID                                 : 55\nCodec ID/Hint                            : MP3\nDuration                                 : 1h 31mn\nBit rate mode                            : Constant\nBit rate                                 : 192 Kbps\nChannel(s)                               : 2 channels\nSampling rate                            : 44.1 KHz\nCompression mode                         : Lossy\nStream size                              : 126 MiB (9%)\nAlignment                                : Split accross interleaves\nInterleave, duration                     : 40 ms (1.00 video frame)\nInterleave, preload duration             : 500 ms\n\n\n &lt;a href=&quot;\nhttp://bayimg.com/AAjKGAaeK&quot; rel=&quot;nofollow&quot; target=&quot;_NEW&quot;&gt;\nhttp://bayimg.com/AAjKGAaeK&lt;/a&gt; &lt;a href=&quot;\nhttp://bayimg.com/aaJkhaAEK&quot; rel=&quot;nofollow&quot; target=&quot;_NEW&quot;&gt;\nhttp://bayimg.com/aaJkhaAEK&lt;/a&gt; &lt;a href=&quot;\nhttp://bayimg.com/AAjKIaaek&quot; rel=&quot;nofollow&quot; target=&quot;_NEW&quot;&gt;\nhttp://bayimg.com/AAjKIaaek&lt;/a&gt;","torrent":{"xt":"urn:btih:e39b837c003fa6e23aaf18fe4a02541ce19445c9","amp;dn":"A+Good+Day+to+Die+Hard+2013+D+CAMRip+RUS","amp;tr":["udp%3A%2F%2Ftracker.openbittorrent.com%3A80","udp%3A%2F%2Fopen.demonii.com%3A1337","udp%3A%2F%2Ftracker.coppersurfer.tk%3A6969","udp%3A%2F%2Fexodus.desync.com%3A6969"],"infoHash":"e39b837c003fa6e23aaf18fe4a02541ce19445c9","infoHashBuffer":{"type":"Buffer","data":[227,155,131,124,0,63,166,226,58,175,24,254,74,2,84,28,225,148,69,201]},"announce":[],"urlList":[]}}